<svg width="15" height="15" viewBox="0 0 15 15" fill="none" xmlns="http://www.w3.org/2000/svg">
<path d="M13.7143 0C13.6464 0 13.5768 0.0125001 13.5071 0.0410715L3.21429 4.17679H0.285714C0.128571 4.17679 0 4.30893 0 4.47322V9.8125C0 9.97679 0.128571 10.1089 0.285714 10.1089H2.10179C2.03571 10.3161 2 10.5357 2 10.7589C2 11.9357 2.96071 12.8929 4.14286 12.8929C5.13214 12.8929 5.96607 12.2214 6.2125 11.3143L13.5089 14.2464C13.5786 14.2732 13.6482 14.2875 13.7161 14.2875C14.0179 14.2875 14.2875 14.0339 14.2875 13.6946V0.592857C14.2857 0.253571 14.0179 0 13.7143 0ZM4.14286 11.6125C3.66964 11.6125 3.28571 11.2304 3.28571 10.7589C3.28571 10.5589 3.35536 10.3679 3.48214 10.2161L4.99821 10.825C4.9625 11.2643 4.59286 11.6125 4.14286 11.6125ZM13 12.6554L3.69286 8.91607L3.4625 8.82322H1.28571V5.4625H3.4625L3.69286 5.36964L13 1.63036V12.6554Z" fill="#464E5F"/>
</svg>
