<svg width="14" height="10" viewBox="0 0 14 10" fill="none" xmlns="http://www.w3.org/2000/svg">
<path d="M13.5 0.000403696H11H10.8512L10.5 0H10.3056L10.062 0.000403696H9.875H7.5625V0H7.4375H6.5625H6.4375V0.000403696H4.125H3.92785H3.05208H3H0.5C0.223437 0.000403696 0 0.223841 0 0.500404V9.5004C0 9.77697 0.223437 10.0004 0.5 10.0004H13.5C13.7766 10.0004 14 9.77697 14 9.5004V0.500404C14 0.223841 13.7766 0.000403696 13.5 0.000403696ZM12.875 8.8754H1.125V1.1254H3H3.10942H3.36487H3.69444H3.77911H4.125H6.4375V1.12373H6.5625H7.4375H7.5625V1.1254H9.875V1.12389H10H10.875H11V1.1254H12.875V8.8754ZM5.5 4.2504H2.625C2.55625 4.2504 2.5 4.30665 2.5 4.3754V5.1254C2.5 5.19415 2.55625 5.2504 2.625 5.2504H5.5C5.56875 5.2504 5.625 5.19415 5.625 5.1254V4.3754C5.625 4.30665 5.56875 4.2504 5.5 4.2504ZM5.5 6.3754H2.625C2.55625 6.3754 2.5 6.43165 2.5 6.5004V7.2504C2.5 7.31915 2.55625 7.3754 2.625 7.3754H5.5C5.56875 7.3754 5.625 7.31915 5.625 7.2504V6.5004C5.625 6.43165 5.56875 6.3754 5.5 6.3754ZM10.3156 3.60353L8.69687 5.84884L7.87188 4.70665C7.825 4.64103 7.75 4.60353 7.67031 4.60353H6.8125C6.71094 4.60353 6.65156 4.71915 6.71094 4.80197L8.49375 7.27384C8.51677 7.30578 8.54704 7.3318 8.58209 7.34974C8.61713 7.36768 8.65594 7.37704 8.69531 7.37704C8.73468 7.37704 8.77349 7.36768 8.80854 7.34974C8.84358 7.3318 8.87386 7.30578 8.89688 7.27384L11.475 3.7004C11.5344 3.61759 11.475 3.50197 11.3734 3.50197H10.5156C10.4375 3.5004 10.3625 3.53947 10.3156 3.60353Z" fill="#587EA0"/>
</svg>
