<svg width="101" height="24" viewBox="0 0 101 24" fill="none" xmlns="http://www.w3.org/2000/svg">
<path d="M0.621071 10.2715H2.07882C2.12367 10.36 2.21338 10.4781 2.34794 10.6257C2.4825 10.7585 2.66192 10.8913 2.88619 11.0242C3.11046 11.1422 3.37958 11.2529 3.69356 11.3562C4.02249 11.4448 4.40374 11.489 4.83733 11.489C5.33072 11.489 5.71946 11.4595 6.00353 11.4005C6.30256 11.3267 6.52682 11.2381 6.67634 11.1348C6.8408 11.0315 6.94546 10.9135 6.99031 10.7806C7.03517 10.6331 7.05759 10.4781 7.05759 10.3158V9.2532C7.05759 9.10562 7.01274 8.98018 6.92303 8.87688C6.84828 8.77357 6.69876 8.67027 6.47449 8.56696C6.26518 8.4489 5.97363 8.3087 5.59984 8.14636C5.24101 7.98402 4.77752 7.77003 4.20938 7.50439C3.80569 7.31254 3.39453 7.13544 2.9759 6.97311C2.57221 6.81077 2.20591 6.61892 1.87698 6.39755C1.54805 6.16142 1.27893 5.87364 1.06961 5.53421C0.860291 5.19478 0.755632 4.74466 0.755632 4.18386V2.98847C0.755632 2.53098 0.822913 2.11776 0.957474 1.74881C1.10699 1.36511 1.35368 1.04781 1.69756 0.796927C2.05639 0.546042 2.52736 0.354189 3.11046 0.221368C3.70851 0.0737894 4.46355 0 5.37558 0C6.36236 0 7.19963 0.0590317 7.88739 0.177095C8.57515 0.295159 9.08349 0.435359 9.41242 0.597695V3.32053H8.13409C8.10418 3.23198 8.0369 3.12867 7.93224 3.01061C7.84254 2.89255 7.7005 2.78186 7.50613 2.67856C7.31177 2.57525 7.05759 2.48671 6.74362 2.41292C6.44459 2.33913 6.06333 2.30223 5.59984 2.30223C4.98684 2.30223 4.51588 2.36864 4.18695 2.50146C3.85802 2.61953 3.69356 2.84827 3.69356 3.18771V3.67472C3.69356 3.85181 3.71598 3.99939 3.76084 4.11745C3.80569 4.23552 3.93278 4.36096 4.1421 4.49378C4.35141 4.6266 4.67287 4.79632 5.10645 5.00293C5.54004 5.19478 6.14557 5.4678 6.92303 5.82199C7.53604 6.10239 8.0369 6.36065 8.42564 6.59678C8.82932 6.81815 9.1433 7.06165 9.36757 7.3273C9.60679 7.59294 9.77125 7.90285 9.86096 8.25704C9.95067 8.59648 9.99552 9.0097 9.99552 9.49671V11.002C9.99552 11.3857 9.89834 11.7473 9.70397 12.0867C9.52455 12.4262 9.25543 12.7213 8.8966 12.9722C8.53777 13.2231 8.09671 13.4223 7.57341 13.5699C7.06507 13.7175 6.48197 13.7913 5.82411 13.7913C4.86723 13.7913 4.08977 13.7617 3.49172 13.7027C2.90862 13.6437 2.43017 13.5699 2.05639 13.4813C1.69756 13.378 1.41349 13.2674 1.20417 13.1493C0.994853 13.0312 0.800486 12.9132 0.621071 12.7951V10.2715Z" fill="#587EA0"/>
<path d="M15.5052 12.0203C15.5052 12.1384 15.5276 12.3007 15.5725 12.5073C15.6173 12.7139 15.6995 12.8763 15.8192 12.9943L15.2361 13.5699H12.8588L12.2757 12.9943C12.4252 12.8468 12.5149 12.6697 12.5448 12.463C12.5747 12.2417 12.5897 12.0941 12.5897 12.0203V1.83736C12.5897 1.71929 12.5747 1.55696 12.5448 1.35035C12.5299 1.14374 12.4402 0.959263 12.2757 0.796927L12.8588 0.221368H15.2361L15.8192 0.796927C15.7444 0.870716 15.6846 0.966643 15.6397 1.08471C15.6098 1.18801 15.5799 1.2987 15.55 1.41676C15.5201 1.54958 15.5052 1.68978 15.5052 1.83736V12.0203Z" fill="#587EA0"/>
<path d="M19.0099 1.83736C19.0099 1.63075 18.9875 1.46103 18.9426 1.32821C18.9127 1.19539 18.8828 1.09208 18.8529 1.0183C18.7931 0.929748 18.7408 0.855958 18.6959 0.796927L19.279 0.221368H21.6563L22.2394 0.796927C22.1796 0.870716 22.1273 0.951885 22.0824 1.04043C21.9777 1.21753 21.9254 1.47579 21.9254 1.81522V11.1127H24.7063C24.9605 11.1127 25.1624 11.0758 25.3119 11.002C25.4763 10.9282 25.6109 10.8397 25.7156 10.7364C25.8352 10.6183 25.9249 10.4855 25.9847 10.3379H27.1285V13.1271C26.9789 13.2157 26.7771 13.2895 26.5229 13.3485C26.3136 13.4075 26.037 13.4592 25.6931 13.5035C25.3642 13.5478 24.9605 13.5699 24.4821 13.5699H19.0099L18.4941 12.3524C18.5838 12.3081 18.666 12.2195 18.7408 12.0867C18.8155 11.9687 18.8753 11.8137 18.9202 11.6218C18.98 11.43 19.0099 11.1791 19.0099 10.8692V1.83736Z" fill="#587EA0"/>
<path d="M28.841 1.92591C28.841 1.68978 28.8185 1.50531 28.7737 1.37249C28.7438 1.22491 28.7139 1.10684 28.684 1.0183C28.6242 0.929748 28.5718 0.855958 28.527 0.796927L29.1101 0.221368H34.1786C34.6869 0.221368 35.1728 0.302537 35.6363 0.464874C36.0998 0.612453 36.5035 0.8412 36.8474 1.15112C37.2062 1.44627 37.4903 1.81522 37.6996 2.25796C37.9089 2.7007 38.0136 3.21722 38.0136 3.80754V5.0472C38.0136 5.75558 37.8865 6.38279 37.6323 6.92883C37.3781 7.46012 37.0343 7.90285 36.6007 8.25704C36.1671 8.61123 35.6662 8.88425 35.0981 9.07611C34.5449 9.2532 33.9618 9.34175 33.3488 9.34175C33.2441 9.34175 33.117 9.34175 32.9675 9.34175C32.818 9.32699 32.661 9.31223 32.4965 9.29747C32.347 9.28272 32.205 9.26796 32.0704 9.2532C31.9359 9.22369 31.8312 9.19417 31.7565 9.16465V12.0203C31.7565 12.1384 31.7789 12.3007 31.8237 12.5073C31.8686 12.7139 31.9508 12.8763 32.0704 12.9943L31.4873 13.5699H29.1101L28.527 12.9943C28.6765 12.8468 28.7662 12.6697 28.7961 12.463C28.826 12.2417 28.841 12.0941 28.841 12.0203V1.92591ZM31.734 6.7296C31.8985 6.80339 32.0854 6.85504 32.2947 6.88456C32.504 6.91408 32.7133 6.92883 32.9227 6.92883C33.5955 6.92883 34.1337 6.72222 34.5374 6.309C34.9411 5.88102 35.1429 5.39401 35.1429 4.84797V3.89609C35.1429 3.45335 35.0084 3.14343 34.7392 2.96634C34.4701 2.77449 34.0739 2.67856 33.5506 2.67856H31.734V6.7296Z" fill="#587EA0"/>
<path d="M42.4541 10.8692C42.4092 11.1053 42.3569 11.3267 42.2971 11.5333C42.2523 11.7104 42.1999 11.8949 42.1401 12.0867C42.0953 12.2786 42.0579 12.4262 42.028 12.5295C41.9532 12.7213 41.8785 12.8836 41.8037 13.0165C41.729 13.1493 41.6542 13.2526 41.5794 13.3264C41.5047 13.4297 41.4225 13.5109 41.3327 13.5699H39.2695L38.5742 12.9722C38.649 12.8984 38.7237 12.8025 38.7985 12.6844C38.948 12.4926 39.0975 12.2122 39.247 11.8432C39.2919 11.7104 39.3816 11.4374 39.5162 11.0242C39.6657 10.6109 39.8301 10.1239 40.0096 9.56312C40.2039 8.98756 40.4132 8.36035 40.6375 7.68149C40.8767 6.98787 41.1085 6.29424 41.3327 5.60062C41.557 4.907 41.7738 4.23552 41.9831 3.58617C42.2074 2.93682 42.4018 2.36126 42.5662 1.85949C42.7307 1.35773 42.8578 0.959264 42.9475 0.664106C43.0372 0.368948 43.082 0.221368 43.082 0.221368H46.334C46.334 0.221368 46.3788 0.368948 46.4685 0.664106C46.5582 0.959264 46.6853 1.35773 46.8498 1.85949C47.0142 2.36126 47.2011 2.93682 47.4104 3.58617C47.6347 4.23552 47.859 4.907 48.0832 5.60062C48.3075 6.29424 48.5318 6.98787 48.7561 7.68149C48.9953 8.36035 49.2046 8.98756 49.384 9.56312C49.5784 10.1239 49.7428 10.6109 49.8774 11.0242C50.0269 11.4374 50.1241 11.7104 50.1689 11.8432C50.2437 12.0351 50.3185 12.2048 50.3932 12.3524C50.468 12.4852 50.5427 12.5959 50.6175 12.6844C50.6922 12.8025 50.767 12.8984 50.8418 12.9722L50.1465 13.5699H48.0832C47.9935 13.5109 47.9113 13.4297 47.8366 13.3264C47.7618 13.2526 47.6796 13.1493 47.5899 13.0165C47.5151 12.8836 47.4478 12.7213 47.388 12.5295C47.3432 12.4262 47.2983 12.2786 47.2535 12.0867C47.2086 11.8949 47.1637 11.7104 47.1189 11.5333C47.0591 11.3267 47.0068 11.1053 46.9619 10.8692H42.4541ZM44.9883 3.34266H44.4277L42.9923 8.78833H46.4237L44.9883 3.34266Z" fill="#587EA0"/>
<path d="M55.6721 11.9539C55.6721 11.9687 55.6721 12.0203 55.6721 12.1089C55.6721 12.1826 55.6796 12.2786 55.6946 12.3966C55.7245 12.4999 55.7618 12.6106 55.8067 12.7287C55.8515 12.832 55.9113 12.9205 55.9861 12.9943L55.403 13.5699H53.4294C53.265 13.4371 53.1379 13.2821 53.0482 13.105C52.9585 12.9279 52.8912 12.7656 52.8463 12.618C52.8015 12.4557 52.7716 12.3228 52.7566 12.2195C52.7566 12.1015 52.7566 12.0351 52.7566 12.0203V1.83736C52.7566 1.68978 52.7417 1.54958 52.7118 1.41676C52.6819 1.2987 52.6445 1.18801 52.5996 1.08471C52.5697 0.966643 52.5174 0.870716 52.4427 0.796927L53.0258 0.221368H54.9993C55.1638 0.383706 55.2909 0.553421 55.3806 0.730516C55.4703 0.907611 55.5376 1.07733 55.5824 1.23966C55.6422 1.41676 55.6721 1.59385 55.6721 1.77095V5.91054C55.9562 5.86626 56.2926 5.72606 56.6813 5.48994C57.0701 5.25381 57.3915 4.83321 57.6457 4.22814L58.9465 1.17325C58.9913 1.06995 59.0212 0.966643 59.0362 0.863338C59.0511 0.760032 59.0586 0.656727 59.0586 0.553422C59.0586 0.509148 59.0511 0.472253 59.0362 0.442737C59.0362 0.398463 59.0362 0.361569 59.0362 0.332052V0.221368H62.4002V1.17325C62.2955 1.20277 62.1909 1.24704 62.0862 1.30607C61.9965 1.36511 61.8993 1.44627 61.7947 1.54958C61.705 1.65288 61.6227 1.79308 61.548 1.97018L60.2024 5.00293C60.0678 5.31284 59.9108 5.57111 59.7314 5.77772C59.5669 5.96957 59.4099 6.13191 59.2604 6.26473C59.1109 6.38279 58.9838 6.47134 58.8792 6.53037C58.7745 6.57464 58.7147 6.59678 58.6998 6.59678C58.7895 6.64105 58.8941 6.69271 59.0137 6.75174C59.1333 6.81077 59.2604 6.9067 59.395 7.03952C59.5445 7.15758 59.7015 7.3273 59.866 7.54866C60.0304 7.75528 60.1949 8.0283 60.3594 8.36773L61.7947 11.2898C61.8993 11.5112 62.0264 11.6809 62.1759 11.7989C62.3254 11.9022 62.475 11.9834 62.6245 12.0424C62.7889 12.1015 62.9609 12.1384 63.1403 12.1531V13.3928C62.9908 13.4518 62.8114 13.5109 62.602 13.5699C62.4226 13.6142 62.2058 13.6511 61.9517 13.6806C61.6975 13.7101 61.4209 13.7248 61.1219 13.7248C60.8976 13.7248 60.6883 13.6732 60.4939 13.5699C60.3145 13.4813 60.1426 13.3633 59.9781 13.2157C59.8286 13.0534 59.6865 12.8836 59.552 12.7066C59.4324 12.5147 59.3202 12.3228 59.2156 12.131L57.3317 8.50055C57.2271 8.3087 57.1 8.14636 56.9505 8.01354C56.8009 7.86596 56.644 7.7479 56.4795 7.65935C56.33 7.55604 56.1805 7.48225 56.031 7.43798C55.8964 7.39371 55.7768 7.35681 55.6721 7.3273V11.9539Z" fill="#587EA0"/>
<path d="M69.4354 13.7691C68.4337 13.7691 67.5665 13.6437 66.8339 13.3928C66.1013 13.1271 65.4958 12.7213 65.0173 12.1753C64.5389 11.6145 64.18 10.9061 63.9408 10.0501C63.7166 9.19417 63.6044 8.16112 63.6044 6.95097C63.6044 4.53067 64.0754 2.76711 65.0173 1.66026C65.9742 0.553421 67.4469 0 69.4354 0C71.409 0 72.8742 0.553421 73.8311 1.66026C74.788 2.75235 75.2664 4.51592 75.2664 6.95097C75.2664 8.16112 75.1468 9.19417 74.9076 10.0501C74.6833 10.9061 74.3245 11.6145 73.8311 12.1753C73.3527 12.7213 72.7471 13.1271 72.0145 13.3928C71.2819 13.6437 70.4222 13.7691 69.4354 13.7691ZM69.4354 11.3119C69.9737 11.3119 70.4222 11.2308 70.781 11.0684C71.1399 10.9061 71.4314 10.6552 71.6557 10.3158C71.88 9.96158 72.0369 9.51147 72.1266 8.96542C72.2313 8.40462 72.2836 7.73314 72.2836 6.95097C72.2836 6.15404 72.2313 5.47518 72.1266 4.91438C72.0369 4.33882 71.88 3.87395 71.6557 3.51976C71.4314 3.15081 71.1399 2.88517 70.781 2.72283C70.4222 2.54574 69.9737 2.45719 69.4354 2.45719C68.8972 2.45719 68.4486 2.54574 68.0898 2.72283C67.731 2.88517 67.4394 3.15081 67.2151 3.51976C66.9909 3.87395 66.8264 4.33882 66.7218 4.91438C66.632 5.47518 66.5872 6.15404 66.5872 6.95097C66.5872 7.73314 66.632 8.40462 66.7218 8.96542C66.8264 9.51147 66.9909 9.96158 67.2151 10.3158C67.4394 10.6552 67.731 10.9061 68.0898 11.0684C68.4486 11.2308 68.8972 11.3119 69.4354 11.3119Z" fill="#587EA0"/>
<path d="M77.9436 1.92591C77.9436 1.68978 77.9212 1.50531 77.8763 1.37249C77.8464 1.22491 77.8165 1.10684 77.7866 1.0183C77.7268 0.929748 77.6745 0.855958 77.6297 0.796927L78.2127 0.221368H83.2812C83.7896 0.221368 84.2755 0.302537 84.739 0.464874C85.2025 0.612453 85.6062 0.8412 85.95 1.15112C86.3089 1.44627 86.5929 1.81522 86.8023 2.25796C87.0116 2.7007 87.1162 3.21722 87.1162 3.80754V5.0472C87.1013 5.97695 86.8845 6.75174 86.4659 7.37157C86.0622 7.9914 85.5239 8.47103 84.8511 8.81047L86.0846 11.2898C86.2042 11.5112 86.3313 11.6809 86.4659 11.7989C86.6154 11.917 86.7649 12.0055 86.9144 12.0646C87.0789 12.1236 87.2508 12.1531 87.4302 12.1531V13.3928C87.2807 13.4518 87.1013 13.5109 86.892 13.5699C86.7126 13.6142 86.4958 13.6511 86.2416 13.6806C85.9874 13.7101 85.7108 13.7248 85.4118 13.7248C85.1875 13.7248 84.9782 13.6732 84.7838 13.5699C84.6044 13.4813 84.4325 13.3633 84.268 13.2157C84.1185 13.0534 83.9765 12.8836 83.8419 12.7066C83.7223 12.5147 83.6102 12.3228 83.5055 12.131L82.0478 9.34175C81.8384 9.32699 81.6142 9.30486 81.3749 9.27534C81.1507 9.24582 80.9787 9.20893 80.8591 9.16465V12.0203C80.8591 12.1384 80.8815 12.3007 80.9264 12.5073C80.9713 12.7139 81.0535 12.8763 81.1731 12.9943L80.59 13.5699H78.2127L77.6297 12.9943C77.7792 12.8468 77.8689 12.6697 77.8988 12.463C77.9287 12.2417 77.9436 12.0941 77.9436 12.0203V1.92591ZM80.8367 6.7296C81.0012 6.80339 81.1881 6.85504 81.3974 6.88456C81.6067 6.91408 81.816 6.92883 82.0253 6.92883C82.6981 6.92883 83.2364 6.72222 83.6401 6.309C84.0437 5.88102 84.2456 5.39401 84.2456 4.84797V3.89609C84.2456 3.45335 84.111 3.14343 83.8419 2.96634C83.5728 2.77449 83.1766 2.67856 82.6533 2.67856H80.8367V6.7296Z" fill="#587EA0"/>
<path d="M100.465 13.5699H97.5723L93.5354 6.37541L92.6383 4.49378L92.7729 6.46396V11.9539C92.7729 12.1458 92.7878 12.3081 92.8177 12.4409C92.8476 12.559 92.885 12.6623 92.9299 12.7508C92.9747 12.8541 93.0271 12.9353 93.0869 12.9943L92.5038 13.5699H90.1265L89.5434 12.9943C89.5883 12.9353 89.6406 12.8615 89.7004 12.773C89.7303 12.6992 89.7602 12.5959 89.7901 12.463C89.835 12.3302 89.8574 12.1605 89.8574 11.9539V2.01445C89.8574 1.74881 89.835 1.5422 89.7901 1.39462C89.7602 1.23228 89.7303 1.10684 89.7004 1.0183C89.6406 0.91499 89.5883 0.841201 89.5434 0.796927L90.1265 0.221368H92.1225C92.3019 0.221368 92.4813 0.2804 92.6608 0.398463C92.8402 0.516527 93.0046 0.701 93.1542 0.951884L96.8097 7.30516L97.6844 9.09824L97.5498 7.28302V1.77095C97.5498 1.59385 97.5274 1.44627 97.4825 1.32821C97.4526 1.19539 97.4227 1.09208 97.3928 1.0183C97.333 0.929748 97.2807 0.855958 97.2358 0.796927L97.8189 0.221368H100.196L100.779 0.796927C100.72 0.870716 100.667 0.951885 100.622 1.04043C100.577 1.12898 100.54 1.23966 100.51 1.37249C100.48 1.49055 100.465 1.64551 100.465 1.83736V13.5699Z" fill="#587EA0"/>
<path d="M1.36828 24C1.11248 24 0.923993 23.938 0.802824 23.8139C0.681655 23.6898 0.621071 23.5233 0.621071 23.3144V17.7312H1.42886V23.2948H2.86269V24H1.36828Z" fill="#587EA0"/>
<path d="M4.43521 24C4.18614 24 3.99765 23.938 3.86975 23.8139C3.74858 23.6898 3.688 23.5233 3.688 23.3144V18.4365H3.26391V17.7312H5.57621C5.82528 17.7312 6.0104 17.7933 6.13157 17.9174C6.25947 18.0414 6.32342 18.2079 6.32342 18.4169V18.9458H5.51563V18.4365H4.49579V20.4053H5.77816V21.1105H4.49579V23.2948H5.51563V22.7854H6.32342V23.3144C6.32342 23.5233 6.25947 23.6898 6.13157 23.8139C6.0104 23.938 5.82528 24 5.57621 24H4.43521Z" fill="#587EA0"/>
<path d="M10.2713 24C10.1434 24 10.0357 23.9837 9.94815 23.951C9.86064 23.9184 9.78996 23.8792 9.7361 23.8335C9.68225 23.7812 9.6385 23.7257 9.60484 23.667C9.57791 23.6017 9.56108 23.5396 9.55435 23.4809L9.3827 22.3642H8.23159L8.05994 23.4809C8.03974 23.6049 7.97579 23.7225 7.86809 23.8335C7.76711 23.9445 7.59209 24 7.34302 24H6.85835V23.2948H7.26224L8.27198 17.7312H9.34231L10.352 23.2948H10.7559V24H10.2713ZM8.82734 18.9164H8.78695L8.34266 21.6786H9.26153L8.82734 18.9164Z" fill="#587EA0"/>
<path d="M13.7271 18.4365H12.4952V23.2948H13.7271V18.4365ZM11.2633 24V23.2948H11.6874V18.4365H11.2633V17.7312H13.7877C14.0435 17.7312 14.232 17.7933 14.3531 17.9174C14.4743 18.0414 14.5349 18.2079 14.5349 18.4169V23.3144C14.5349 23.5233 14.4743 23.6898 14.3531 23.8139C14.232 23.938 14.0435 24 13.7877 24H11.2633Z" fill="#587EA0"/>
<path d="M15.7622 24V23.2948H16.2873V18.4365H15.7622V17.7312H17.6201V18.4365H17.0951V23.2948H17.6201V24H15.7622Z" fill="#587EA0"/>
<path d="M21.3378 24L20.3482 21.4239C20.2877 21.2607 20.2304 21.1072 20.1766 20.9636C20.1295 20.8134 20.0823 20.6632 20.0352 20.513C19.9948 20.3563 19.9511 20.1963 19.9039 20.0331C19.8568 19.8698 19.8063 19.6837 19.7525 19.4747L19.7222 19.4845C19.7424 19.6478 19.7592 19.8274 19.7727 20.0233C19.7861 20.2192 19.7962 20.4216 19.803 20.6305C19.8097 20.8395 19.8131 21.0485 19.8131 21.2574C19.8198 21.4664 19.8232 21.6688 19.8232 21.8647V23.3144C19.8232 23.5233 19.766 23.6898 19.6515 23.8139C19.5371 23.938 19.3553 24 19.1063 24H18.6317V23.2948H19.0558V18.4365H18.6317V17.7312H19.8939L20.7016 19.9253C20.7959 20.2126 20.8969 20.5293 21.0046 20.8754C21.1123 21.2215 21.2099 21.5709 21.2974 21.9235L21.3277 21.9137C21.3142 21.7308 21.3041 21.5447 21.2974 21.3554C21.2907 21.166 21.2839 20.9832 21.2772 20.8069C21.2772 20.624 21.2772 20.4575 21.2772 20.3073C21.2772 20.1506 21.2772 20.0135 21.2772 19.8959V18.4169C21.2772 18.2079 21.3344 18.0414 21.4489 17.9174C21.5633 17.7933 21.745 17.7312 21.9941 17.7312H22.4687V18.4365H22.0446V24H21.3378Z" fill="#587EA0"/>
<path d="M24.314 24C24.0582 24 23.8697 23.938 23.7485 23.8139C23.6274 23.6898 23.5668 23.5233 23.5668 23.3144V18.4169C23.5668 18.2079 23.6274 18.0414 23.7485 17.9174C23.8697 17.7933 24.0582 17.7312 24.314 17.7312H25.869C26.1181 17.7312 26.3032 17.7933 26.4243 17.9174C26.5522 18.0414 26.6162 18.2079 26.6162 18.4169V18.9458H25.8084V18.4365H24.3746V23.2948H25.8084V21.3456H25.2329V20.6403H26.6162V23.3144C26.6162 23.5233 26.5522 23.6898 26.4243 23.8139C26.3032 23.938 26.1181 24 25.869 24H24.314Z" fill="#587EA0"/>
<path d="M31.0688 24C30.813 24 30.6245 23.938 30.5034 23.8139C30.3822 23.6898 30.3216 23.5233 30.3216 23.3144V18.4169C30.3216 18.2079 30.3822 18.0414 30.5034 17.9174C30.6245 17.7933 30.813 17.7312 31.0688 17.7312H32.2906C32.5397 17.7312 32.7248 17.7933 32.846 17.9174C32.9739 18.0414 33.0378 18.2079 33.0378 18.4169V18.9458H32.23V18.4365H31.1294V23.2948H32.23V22.7854H33.0378V23.3144C33.0378 23.5233 32.9739 23.6898 32.846 23.8139C32.7248 23.938 32.5397 24 32.2906 24H31.0688Z" fill="#587EA0"/>
<path d="M36.1084 18.4365H34.8765V20.6599H36.1084V18.4365ZM36.7142 24C36.5392 24 36.4079 23.9641 36.3204 23.8923C36.2329 23.8204 36.1656 23.7127 36.1185 23.569L35.442 21.3162H34.8765V24H33.6446V23.2948H34.0687V17.7312H36.169C36.4248 17.7312 36.6133 17.7933 36.7344 17.9174C36.8556 18.0414 36.9162 18.2079 36.9162 18.4169V20.6403C36.9162 20.8493 36.8522 21.0125 36.7243 21.1301C36.6032 21.2411 36.445 21.3031 36.2497 21.3162L36.8758 23.2948H37.3706V24H36.7142Z" fill="#587EA0"/>
<path d="M39.0464 24C38.7973 24 38.6089 23.938 38.481 23.8139C38.3598 23.6898 38.2992 23.5233 38.2992 23.3144V18.4365H37.8751V17.7312H40.1874C40.4365 17.7312 40.6216 17.7933 40.7428 17.9174C40.8707 18.0414 40.9346 18.2079 40.9346 18.4169V18.9458H40.1268V18.4365H39.107V20.4053H40.3894V21.1105H39.107V23.2948H40.1268V22.7854H40.9346V23.3144C40.9346 23.5233 40.8707 23.6898 40.7428 23.8139C40.6216 23.938 40.4365 24 40.1874 24H39.0464Z" fill="#587EA0"/>
<path d="M44.8825 24C44.7546 24 44.6469 23.9837 44.5594 23.951C44.4718 23.9184 44.4012 23.8792 44.3473 23.8335C44.2935 23.7812 44.2497 23.7257 44.216 23.667C44.1891 23.6017 44.1723 23.5396 44.1656 23.4809L43.9939 22.3642H42.8428L42.6711 23.4809C42.6509 23.6049 42.587 23.7225 42.4793 23.8335C42.3783 23.9445 42.2033 24 41.9542 24H41.4696V23.2948H41.8734L42.8832 17.7312H43.9535L44.9632 23.2948H45.3671V24H44.8825ZM43.4385 18.9164H43.3982L42.9539 21.6786H43.8727L43.4385 18.9164Z" fill="#587EA0"/>
<path d="M46.4804 24V23.2948H47.0055V18.3875H46.3794V18.9458H45.5716V18.3581C45.5716 18.1492 45.6255 17.9924 45.7332 17.888C45.8476 17.7835 46.0327 17.7312 46.2885 17.7312H48.5302C48.786 17.7312 48.9677 17.7835 49.0754 17.888C49.1899 17.9924 49.2471 18.1492 49.2471 18.3581V18.9458H48.4393V18.3875H47.8132V23.2948H48.3383V24H46.4804Z" fill="#587EA0"/>
<path d="M49.8508 24V23.2948H50.3759V18.4365H49.8508V17.7312H51.7087V18.4365H51.1836V23.2948H51.7087V24H49.8508Z" fill="#587EA0"/>
<path d="M53.73 24L52.7707 18.4365H52.3669V17.7312H52.8919C53.141 17.7312 53.3093 17.7868 53.3968 17.8978C53.491 18.0088 53.5482 18.1263 53.5684 18.2504L53.8815 20.2681C53.9219 20.5293 53.9589 20.7709 53.9925 20.993C54.0262 21.215 54.0565 21.4272 54.0834 21.6296C54.1171 21.8255 54.1474 22.0214 54.1743 22.2173C54.2012 22.4067 54.2248 22.6059 54.245 22.8148H54.2854C54.3056 22.6059 54.3291 22.4067 54.356 22.2173C54.383 22.0214 54.4099 21.8255 54.4368 21.6296C54.4705 21.4272 54.5041 21.215 54.5378 20.993C54.5714 20.7709 54.6085 20.5293 54.6489 20.2681L54.9619 18.2504C54.9686 18.1916 54.9821 18.1328 55.0023 18.0741C55.0225 18.0088 55.0561 17.9533 55.1032 17.9076C55.1504 17.8553 55.211 17.8129 55.285 17.7802C55.3658 17.7476 55.4701 17.7312 55.598 17.7312H56.1635V18.4365H55.7596L54.8003 24H53.73Z" fill="#587EA0"/>
<path d="M57.7917 24C57.5426 24 57.3541 23.938 57.2262 23.8139C57.1051 23.6898 57.0445 23.5233 57.0445 23.3144V18.4365H56.6204V17.7312H58.9327C59.1818 17.7312 59.3669 17.7933 59.488 17.9174C59.6159 18.0414 59.6799 18.2079 59.6799 18.4169V18.9458H58.8721V18.4365H57.8523V20.4053H59.1346V21.1105H57.8523V23.2948H58.8721V22.7854H59.6799V23.3144C59.6799 23.5233 59.6159 23.6898 59.488 23.8139C59.3669 23.938 59.1818 24 58.9327 24H57.7917Z" fill="#587EA0"/>
<path d="M64.0432 24C63.7874 24 63.5989 23.938 63.4777 23.8139C63.3565 23.6898 63.2959 23.5233 63.2959 23.3144V17.7312H64.1037V23.2948H65.5881V17.7312H66.3958V23.3144C66.3958 23.5233 66.3353 23.6898 66.2141 23.8139C66.0929 23.938 65.9044 24 65.6486 24H64.0432Z" fill="#587EA0"/>
<path d="M70.326 24L69.3364 21.4239C69.2758 21.2607 69.2186 21.1072 69.1647 20.9636C69.1176 20.8134 69.0705 20.6632 69.0234 20.513C68.983 20.3563 68.9392 20.1963 68.8921 20.0331C68.845 19.8698 68.7945 19.6837 68.7407 19.4747L68.7104 19.4845C68.7306 19.6478 68.7474 19.8274 68.7608 20.0233C68.7743 20.2192 68.7844 20.4216 68.7911 20.6305C68.7979 20.8395 68.8012 21.0485 68.8012 21.2574C68.808 21.4664 68.8113 21.6688 68.8113 21.8647V23.3144C68.8113 23.5233 68.7541 23.6898 68.6397 23.8139C68.5252 23.938 68.3435 24 68.0944 24H67.6198V23.2948H68.0439V18.4365H67.6198V17.7312H68.882L69.6898 19.9253C69.784 20.2126 69.885 20.5293 69.9927 20.8754C70.1004 21.2215 70.198 21.5709 70.2856 21.9235L70.3159 21.9137C70.3024 21.7308 70.2923 21.5447 70.2856 21.3554C70.2788 21.166 70.2721 20.9832 70.2654 20.8069C70.2654 20.624 70.2654 20.4575 70.2654 20.3073C70.2654 20.1506 70.2654 20.0135 70.2654 19.8959V18.4169C70.2654 18.2079 70.3226 18.0414 70.437 17.9174C70.5515 17.7933 70.7332 17.7312 70.9823 17.7312H71.4569V18.4365H71.0328V24H70.326Z" fill="#587EA0"/>
<path d="M72.353 24V23.2948H72.8781V18.4365H72.353V17.7312H74.2109V18.4365H73.6859V23.2948H74.2109V24H72.353Z" fill="#587EA0"/>
<path d="M76.2322 24L75.273 18.4365H74.8691V17.7312H75.3941C75.6432 17.7312 75.8115 17.7868 75.899 17.8978C75.9932 18.0088 76.0505 18.1263 76.0707 18.2504L76.3837 20.2681C76.4241 20.5293 76.4611 20.7709 76.4948 20.993C76.5284 21.215 76.5587 21.4272 76.5856 21.6296C76.6193 21.8255 76.6496 22.0214 76.6765 22.2173C76.7034 22.4067 76.727 22.6059 76.7472 22.8148H76.7876C76.8078 22.6059 76.8313 22.4067 76.8583 22.2173C76.8852 22.0214 76.9121 21.8255 76.939 21.6296C76.9727 21.4272 77.0063 21.215 77.04 20.993C77.0737 20.7709 77.1107 20.5293 77.1511 20.2681L77.4641 18.2504C77.4708 18.1916 77.4843 18.1328 77.5045 18.0741C77.5247 18.0088 77.5583 17.9533 77.6055 17.9076C77.6526 17.8553 77.7132 17.8129 77.7872 17.7802C77.868 17.7476 77.9723 17.7312 78.1002 17.7312H78.6657V18.4365H78.2618L77.3025 24H76.2322Z" fill="#587EA0"/>
<path d="M80.2939 24C80.0448 24 79.8563 23.938 79.7284 23.8139C79.6073 23.6898 79.5467 23.5233 79.5467 23.3144V18.4365H79.1226V17.7312H81.4349C81.684 17.7312 81.8691 17.7933 81.9903 17.9174C82.1182 18.0414 82.1821 18.2079 82.1821 18.4169V18.9458H81.3743V18.4365H80.3545V20.4053H81.6369V21.1105H80.3545V23.2948H81.3743V22.7854H82.1821V23.3144C82.1821 23.5233 82.1182 23.6898 81.9903 23.8139C81.8691 23.938 81.684 24 81.4349 24H80.2939Z" fill="#587EA0"/>
<path d="M85.3727 18.4365H84.1408V20.6599H85.3727V18.4365ZM85.9785 24C85.8035 24 85.6722 23.9641 85.5847 23.8923C85.4972 23.8204 85.4299 23.7127 85.3827 23.569L84.7062 21.3162H84.1408V24H82.9089V23.2948H83.333V17.7312H85.4332C85.689 17.7312 85.8775 17.7933 85.9987 17.9174C86.1199 18.0414 86.1804 18.2079 86.1804 18.4169V20.6403C86.1804 20.8493 86.1165 21.0125 85.9886 21.1301C85.8674 21.2411 85.7092 21.3031 85.514 21.3162L86.1401 23.2948H86.6348V24H85.9785Z" fill="#587EA0"/>
<path d="M87.9977 24C87.7419 24 87.5534 23.938 87.4322 23.8139C87.311 23.6898 87.2505 23.5233 87.2505 23.3144V22.7854H88.0582V23.2948H89.0882V22.6189L87.4019 19.5727C87.3413 19.4617 87.3009 19.3735 87.2807 19.3082C87.2606 19.2364 87.2505 19.1417 87.2505 19.0242V18.4169C87.2505 18.2079 87.311 18.0414 87.4322 17.9174C87.5534 17.7933 87.7419 17.7312 87.9977 17.7312H89.1084C89.3574 17.7312 89.5426 17.7933 89.6637 17.9174C89.7916 18.0414 89.8556 18.2079 89.8556 18.4169V18.9458H89.0478V18.4365H88.0179V19.034L89.7142 22.1586C89.8085 22.3218 89.8556 22.4785 89.8556 22.6287V23.3144C89.8556 23.5233 89.795 23.6898 89.6738 23.8139C89.5527 23.938 89.3642 24 89.1084 24H87.9977Z" fill="#587EA0"/>
<path d="M90.763 24V23.2948H91.2881V18.4365H90.763V17.7312H92.6209V18.4365H92.0959V23.2948H92.6209V24H90.763Z" fill="#587EA0"/>
<path d="M94.1374 24V23.2948H94.6624V18.3875H94.0364V18.9458H93.2286V18.3581C93.2286 18.1492 93.2824 17.9924 93.3901 17.888C93.5046 17.7835 93.6897 17.7312 93.9455 17.7312H96.1871C96.4429 17.7312 96.6247 17.7835 96.7324 17.888C96.8468 17.9924 96.904 18.1492 96.904 18.3581V18.9458H96.0962V18.3875H95.4702V23.2948H95.9953V24H94.1374Z" fill="#587EA0"/>
<path d="M98.0126 24V23.2948H98.5276V21.4435L97.5784 18.4365H97.1543V17.7312H97.6087C97.8578 17.7312 98.0362 17.7868 98.1439 17.8978C98.2516 18.0088 98.3256 18.1394 98.366 18.2896L98.7093 19.5041C98.7632 19.6935 98.8103 19.8992 98.8507 20.1212C98.8911 20.3432 98.9214 20.5522 98.9416 20.7481H98.982C98.9954 20.5522 99.0224 20.3432 99.0628 20.1212C99.1099 19.8992 99.1604 19.6935 99.2142 19.5041L99.5676 18.2896C99.6147 18.1394 99.6888 18.0088 99.7898 17.8978C99.8975 17.7868 100.076 17.7312 100.325 17.7312H100.779V18.4365H100.355L99.396 21.4435V23.2948H99.8705V24H98.0126Z" fill="#587EA0"/>
</svg>
